<svg width="24" height="24" viewBox="0 0 24 24" fill="none" xmlns="http://www.w3.org/2000/svg">
<path fill-rule="evenodd" clip-rule="evenodd" d="M10.9994 2.17806C11.6185 1.82037 12.3815 1.82037 13.0006 2.17806L20.0006 6.2225C20.619 6.57985 21 7.23993 21 7.95423V16.0457C21 16.76 20.619 17.4201 20.0006 17.7774L13.0006 21.8219C12.3815 22.1796 11.6185 22.1796 10.9994 21.8219L3.99944 17.7774C3.38095 17.4201 3 16.76 3 16.0457V7.95423C3 7.23993 3.38096 6.57985 3.99944 6.2225L10.9994 2.17806ZM18.0017 7.37742L12 10.845L5.99834 7.37742L12 3.90979L18.0017 7.37742ZM5 16.0457L5 9.11043L11 12.5771V19.5124L5 16.0457ZM19 16.0457L13 19.5124V12.5771L19 9.11043V16.0457Z" fill="black"/>
</svg>
